<svg height="30pt" preserveAspectRatio="xMidYMid meet" viewBox="0 0 124 126" width="70pt" xmlns="http://www.w3.org/2000/svg"><path d="m0 833v-427l33 32 32 31 43-49c62-72 152-114 248-114 67-1 76 1 101 27 21 20 28 37 28 67 0 54-33 85-153 148-167 88-212 132-212 212 0 177 174 264 377 188 53-19 163-107 163-129 0-5-13-23-29-41l-28-32-49 50c-58 59-119 84-207 84-51 0-62-4-88-29-23-24-29-38-29-74 0-57 24-79 161-148 196-98 249-200 172-331-83-142-362-115-519 50l-44 46v-197-197h615 615l-1 128-1 127-28-113c-15-62-30-116-34-119-6-6-96 6-96 13 0 3 18 83 40 178 44 190 47 223 25 265-30 60-128 65-202 12-48-35-54-48-97-235-19-81-37-150-39-153-3-2-25 1-51 8-43 11-45 13-39 38 4 14 43 182 88 374 45 191 84 349 86 351 3 3 24 0 47-6 30-7 42-16 42-28 0-16-41-201-57-253-4-17-2-17 37 3 83 42 177 36 248-17l32-24v355 356h-615-615z" transform="matrix(.1 0 0 -.1 0 126)"/></svg>